<?xml version="1.0" standalone="no"?>
<!DOCTYPE svg PUBLIC "-//W3C//DTD SVG 20010904//EN"
 "http://www.w3.org/TR/2001/REC-SVG-20010904/DTD/svg10.dtd">
<svg version="1.0" xmlns="http://www.w3.org/2000/svg"
 width="260.000000pt" height="139.000000pt" viewBox="0 0 260.000000 139.000000"
 preserveAspectRatio="xMidYMid meet">
<metadata>
Created by potrace 1.16, written by Peter Selinger 2001-2019
</metadata>
<g transform="translate(0.000000,139.000000) scale(0.100000,-0.100000)"
fill="#000000" stroke="none">
<path d="M1795 1245 c-310 -84 -484 -394 -390 -693 84 -266 340 -425 616 -383
62 10 179 51 179 63 0 7 -162 312 -176 333 -22 31 -18 16 41 -140 30 -80 55
-152 55 -160 0 -34 -183 -57 -292 -35 -251 49 -428 303 -388 556 31 194 182
360 370 405 74 17 193 15 263 -5 172 -50 312 -202 349 -378 11 -54 14 -58 40
-58 28 0 28 1 22 43 -9 60 -50 163 -85 219 -68 105 -216 209 -339 237 -63 15
-205 12 -265 -4z"/>
<path d="M1946 1049 c-32 -25 -34 -66 -6 -97 42 -45 120 -15 120 47 0 32 -39
71 -70 71 -10 0 -29 -9 -44 -21z"/>
<path d="M1660 963 c-23 -8 -50 -45 -50 -69 0 -52 88 -85 123 -46 47 51 -9
138 -73 115z"/>
<path d="M223 895 c-38 -16 -53 -42 -53 -88 0 -44 38 -79 102 -95 60 -15 88
-44 88 -91 0 -52 -34 -84 -93 -85 -57 -1 -97 20 -97 51 0 13 -4 23 -10 23 -5
0 -10 -13 -10 -28 0 -30 19 -44 84 -63 72 -21 146 31 146 101 0 51 -29 85 -93
105 -83 27 -97 40 -97 85 0 61 47 92 113 73 24 -6 33 -16 38 -38 6 -29 7 -29
8 7 1 35 -1 38 -36 47 -47 13 -51 13 -90 -4z"/>
<path d="M2135 875 c-28 -27 -29 -33 -15 -70 11 -29 53 -49 88 -40 34 8 54 61
36 96 -23 46 -72 52 -109 14z"/>
<path d="M1004 716 c-105 -46 -74 -196 40 -196 41 0 76 14 65 25 -4 3 -18 1
-32 -4 -13 -5 -35 -7 -48 -4 -25 6 -59 31 -59 43 0 3 38 21 85 39 47 19 85 35
85 38 0 16 -37 53 -62 62 -38 13 -36 13 -74 -3z"/>
</g>
</svg>
